HIERARCHY
ROOT Hips
{
	OFFSET 0.000000 100.481300 0.000000
	CHANNELS 6 Xposition Yposition Zposition Xrotation Yrotation Zrotation 
	JOINT Spine
	{
		OFFSET -0.279200 12.230698 -2.892100
		CHANNELS 3 Xrotation Yrotation Zrotation
		JOINT Spine1
		{
			OFFSET -0.232667 10.192268 -1.242267
			CHANNELS 3 Xrotation Yrotation Zrotation
			JOINT Spine1_split
			{
				OFFSET -0.232667 10.192268 -1.242267
				CHANNELS 3 Xrotation Yrotation Zrotation
				JOINT Spine2
				{
					OFFSET -0.232667 10.192268 -1.242267
					CHANNELS 3 Xrotation Yrotation Zrotation
					JOINT Neck
					{
						OFFSET -0.418800 17.814194 8.416900
						CHANNELS 3 Xrotation Yrotation Zrotation
						JOINT Head
						{
							OFFSET 0.000000 7.031097 3.806800
							CHANNELS 3 Xrotation Yrotation Zrotation
							JOINT HeadTop_End
							{
								OFFSET 0.000000 24.646606 12.978600
								CHANNELS 3 Xrotation Yrotation Zrotation
								End Site
								{
									OFFSET 0.000000 0.000000 0.000000
								}
							}
						}
					}
					JOINT LeftShoulder
					{
						OFFSET 8.476499 7.247704 -3.868750
						CHANNELS 3 Xrotation Yrotation Zrotation
						JOINT LeftShoulder_split
						{
							OFFSET 8.476499 7.247704 -3.868750
							CHANNELS 3 Xrotation Yrotation Zrotation
							JOINT LeftArm
							{
								OFFSET 9.308998 -2.777710 0.208600
								CHANNELS 3 Xrotation Yrotation Zrotation
								JOINT LeftForeArm
								{
									OFFSET 29.972298 0.000000 0.000000
									CHANNELS 3 Xrotation Yrotation Zrotation
									JOINT LeftHand
									{
										OFFSET 26.026505 0.000000 0.000000
										CHANNELS 3 Xrotation Yrotation Zrotation
										JOINT LeftHandThumb1
										{
											OFFSET 12.240501 -7.147949 9.207150
											CHANNELS 3 Xrotation Yrotation Zrotation
											JOINT LeftHandThumb2
											{
												OFFSET 4.138618 -2.389435 2.389433
												CHANNELS 3 Xrotation Yrotation Zrotation
												JOINT LeftHandThumb3
												{
													OFFSET 2.726913 -1.574387 1.574386
													CHANNELS 3 Xrotation Yrotation Zrotation
													JOINT LeftHandThumb4
													{
														OFFSET 3.941010 -2.275345 2.275342
														CHANNELS 3 Xrotation Yrotation Zrotation
														End Site
														{
															OFFSET 0.000000 0.000000 0.000000
														}
													}
												}
											}
										}
										JOINT LeftHandIndex1
										{
											OFFSET 24.424698 -1.985611 5.953459
											CHANNELS 3 Xrotation Yrotation Zrotation
											JOINT LeftHandIndex2
											{
												OFFSET 6.426697 0.000000 0.000000
												CHANNELS 3 Xrotation Yrotation Zrotation
												JOINT LeftHandIndex3
												{
													OFFSET 5.337898 0.000000 0.000000
													CHANNELS 3 Xrotation Yrotation Zrotation
													JOINT LeftHandIndex4
													{
														OFFSET 4.409401 0.000000 0.000000
														CHANNELS 3 Xrotation Yrotation Zrotation
														End Site
														{
															OFFSET 0.000000 0.000000 0.000000
														}
													}
												}
											}
										}
										JOINT LeftHandMiddle1
										{
											OFFSET 23.810104 0.000000 0.000000
											CHANNELS 3 Xrotation Yrotation Zrotation
											JOINT LeftHandMiddle2
											{
												OFFSET 7.176498 0.000000 0.000000
												CHANNELS 3 Xrotation Yrotation Zrotation
												JOINT LeftHandMiddle3
												{
													OFFSET 6.774902 0.000000 0.000000
													CHANNELS 3 Xrotation Yrotation Zrotation
													JOINT LeftHandMiddle4
													{
														OFFSET 5.403328 0.000000 0.000000
														CHANNELS 3 Xrotation Yrotation Zrotation
														End Site
														{
															OFFSET 0.000000 0.000000 0.000000
														}
													}
												}
											}
										}
										JOINT LeftHandRing1
										{
											OFFSET 22.908401 -0.839279 -6.020567
											CHANNELS 3 Xrotation Yrotation Zrotation
											JOINT LeftHandRing2
											{
												OFFSET 6.337502 0.000000 0.000000
												CHANNELS 3 Xrotation Yrotation Zrotation
												JOINT LeftHandRing3
												{
													OFFSET 5.779297 0.000000 0.000000
													CHANNELS 3 Xrotation Yrotation Zrotation
													JOINT LeftHandRing4
													{
														OFFSET 4.965698 0.000000 0.000000
														CHANNELS 3 Xrotation Yrotation Zrotation
														End Site
														{
															OFFSET 0.000000 0.000000 0.000000
														}
													}
												}
											}
										}
										JOINT LeftHandPinky1
										{
											OFFSET 20.037003 -1.530319 -10.950146
											CHANNELS 3 Xrotation Yrotation Zrotation
											JOINT LeftHandPinky2
											{
												OFFSET 5.254700 0.000000 0.000000
												CHANNELS 3 Xrotation Yrotation Zrotation
												JOINT LeftHandPinky3
												{
													OFFSET 4.810204 0.000000 0.000000
													CHANNELS 3 Xrotation Yrotation Zrotation
													JOINT LeftHandPinky4
													{
														OFFSET 3.647202 0.000000 0.000000
														CHANNELS 3 Xrotation Yrotation Zrotation
														End Site
														{
															OFFSET 0.000000 0.000000 0.000000
														}
													}
												}
											}
										}
									}
								}
							}
						}
					}
					JOINT RightShoulder
					{
						OFFSET -7.570500 7.247704 -3.868750
						CHANNELS 3 Xrotation Yrotation Zrotation
						JOINT RightShoulder_split
						{
							OFFSET -7.570500 7.247704 -3.868750
							CHANNELS 3 Xrotation Yrotation Zrotation
							JOINT RightArm
							{
								OFFSET -9.308998 -2.777710 0.208500
								CHANNELS 3 Xrotation Yrotation Zrotation
								JOINT RightForeArm
								{
									OFFSET -29.972300 0.000000 0.000000
									CHANNELS 3 Xrotation Yrotation Zrotation
									JOINT RightHand
									{
										OFFSET -26.026505 0.000000 0.000000
										CHANNELS 3 Xrotation Yrotation Zrotation
										JOINT RightHandThumb1
										{
											OFFSET -12.240601 -7.148026 9.207092
											CHANNELS 3 Xrotation Yrotation Zrotation
											JOINT RightHandThumb2
											{
												OFFSET -4.138618 -2.389435 2.389433
												CHANNELS 3 Xrotation Yrotation Zrotation
												JOINT RightHandThumb3
												{
													OFFSET -2.726974 -1.574417 1.574421
													CHANNELS 3 Xrotation Yrotation Zrotation
													JOINT RightHandThumb4
													{
														OFFSET -3.941010 -2.275345 2.275343
														CHANNELS 3 Xrotation Yrotation Zrotation
														End Site
														{
															OFFSET 0.000000 0.000000 0.000000
														}
													}
												}
											}
										}
										JOINT RightHandIndex1
										{
											OFFSET -24.424698 -1.985657 5.953444
											CHANNELS 3 Xrotation Yrotation Zrotation
											JOINT RightHandIndex2
											{
												OFFSET -6.426697 0.000000 0.000000
												CHANNELS 3 Xrotation Yrotation Zrotation
												JOINT RightHandIndex3
												{
													OFFSET -5.337898 0.000000 0.000000
													CHANNELS 3 Xrotation Yrotation Zrotation
													JOINT RightHandIndex4
													{
														OFFSET -4.409401 0.000000 0.000000
														CHANNELS 3 Xrotation Yrotation Zrotation
														End Site
														{
															OFFSET 0.000000 0.000000 0.000000
														}
													}
												}
											}
										}
										JOINT RightHandMiddle1
										{
											OFFSET -23.810097 0.000000 0.000000
											CHANNELS 3 Xrotation Yrotation Zrotation
											JOINT RightHandMiddle2
											{
												OFFSET -7.176498 0.000000 0.000000
												CHANNELS 3 Xrotation Yrotation Zrotation
												JOINT RightHandMiddle3
												{
													OFFSET -6.774902 0.000000 0.000000
													CHANNELS 3 Xrotation Yrotation Zrotation
													JOINT RightHandMiddle4
													{
														OFFSET -5.403328 0.000000 0.000000
														CHANNELS 3 Xrotation Yrotation Zrotation
														End Site
														{
															OFFSET 0.000000 0.000000 0.000000
														}
													}
												}
											}
										}
										JOINT RightHandRing1
										{
											OFFSET -22.908302 -0.839325 -6.020576
											CHANNELS 3 Xrotation Yrotation Zrotation
											JOINT RightHandRing2
											{
												OFFSET -6.337502 0.000000 0.000000
												CHANNELS 3 Xrotation Yrotation Zrotation
												JOINT RightHandRing3
												{
													OFFSET -5.779297 0.000000 0.000000
													CHANNELS 3 Xrotation Yrotation Zrotation
													JOINT RightHandRing4
													{
														OFFSET -4.965698 0.000000 0.000000
														CHANNELS 3 Xrotation Yrotation Zrotation
														End Site
														{
															OFFSET 0.000000 0.000000 0.000000
														}
													}
												}
											}
										}
										JOINT RightHandPinky1
										{
											OFFSET -20.037003 -1.530334 -10.950259
											CHANNELS 3 Xrotation Yrotation Zrotation
											JOINT RightHandPinky2
											{
												OFFSET -5.254700 0.000000 0.000000
												CHANNELS 3 Xrotation Yrotation Zrotation
												JOINT RightHandPinky3
												{
													OFFSET -4.810204 0.000000 0.000000
													CHANNELS 3 Xrotation Yrotation Zrotation
													JOINT RightHandPinky4
													{
														OFFSET -3.647202 0.000000 0.000000
														CHANNELS 3 Xrotation Yrotation Zrotation
														End Site
														{
															OFFSET 0.000000 0.000000 0.000000
														}
													}
												}
											}
										}
									}
								}
							}
						}
					}
				}
			}
		}
	}
	JOINT LeftUpLeg
	{
		OFFSET 15.427100 -6.655098 0.678600
		CHANNELS 3 Xrotation Yrotation Zrotation
		JOINT LeftLeg
		{
			OFFSET 4.081073 -39.591068 13.024000
			CHANNELS 3 Xrotation Yrotation Zrotation
			JOINT LeftFoot
			{
				OFFSET -4.081074 -37.707932 -15.979700
				CHANNELS 3 Xrotation Yrotation Zrotation
				JOINT LeftToeBase
				{
					OFFSET 5.346399 -15.068900 20.645000
					CHANNELS 3 Xrotation Yrotation Zrotation
					JOINT LeftToe_End
					{
						OFFSET 2.754700 0.931300 11.300900
						CHANNELS 3 Xrotation Yrotation Zrotation
						End Site
						{
							OFFSET 0.000000 0.000000 0.000000
						}
					}
				}
			}
		}
	}
	JOINT RightUpLeg
	{
		OFFSET -15.569500 -6.655098 0.678600
		CHANNELS 3 Xrotation Yrotation Zrotation
		JOINT RightLeg
		{
			OFFSET -4.081825 -39.591045 13.023800
			CHANNELS 3 Xrotation Yrotation Zrotation
			JOINT RightFoot
			{
				OFFSET 4.081824 -37.707954 -15.979600
				CHANNELS 3 Xrotation Yrotation Zrotation
				JOINT RightToeBase
				{
					OFFSET -5.346400 -15.068900 20.645000
					CHANNELS 3 Xrotation Yrotation Zrotation
					JOINT RightToe_End
					{
						OFFSET -2.754700 0.931300 11.300900
						CHANNELS 3 Xrotation Yrotation Zrotation
						End Site
						{
							OFFSET 0.000000 0.000000 0.000000
						}
					}
				}
			}
		}
	}
}
MOTION
Frames: 6
Frame Time: 0.016667
0.705957 69.258598 -0.739717 11.809624 2.894551 -1.387532 9.873359 1.558429 1.237717 7.603457 0.776393 0.053755 0.000000 0.000000 0.000000 7.594521 0.865696 0.034386 -11.221135 -1.914915 7.441272 -27.443507 2.006291 -5.891917 0.000000 -0.000000 -0.000000 3.557338 -26.212548 4.772364 0.000000 0.000000 0.000000 -62.448706 -21.862981 -66.788219 0.000044 -109.334342 0.000050 0.750570 -5.137679 14.576845 -15.245206 10.163100 26.456304 3.939044 7.948704 0.746813 -0.579466 1.574990 2.538713 0.000000 0.000001 0.000000 0.000004 -0.000001 0.000004 0.000000 0.000014 -0.000070 0.000003 0.000009 -0.000042 0.000001 0.000000 -0.000000 -0.000002 -0.001924 0.015973 0.000003 0.001935 -0.016036 -0.000001 0.000014 -0.000046 -0.000001 -0.000004 0.000000 0.000004 -0.000001 0.000004 -0.000001 0.000015 -0.000070 0.000004 0.000007 -0.000047 0.000000 -0.000003 -0.000002 -0.018084 4.054254 0.511064 -0.018090 -4.054243 -0.511129 -0.000004 0.000010 -0.000054 0.000000 0.000003 0.000001 1.196399 13.130267 10.955145 0.000000 0.000000 0.000000 -58.753239 43.561201 51.473781 0.000084 106.323929 -0.000084 3.436631 -3.949659 -38.593533 -6.948216 -5.049361 -29.743008 4.637205 -8.634122 -0.225402 -1.273762 0.137307 -2.094861 -0.000000 0.000004 0.000001 -0.000003 -0.000005 0.000004 0.000010 -0.000007 0.000087 -0.000004 0.000005 0.000020 0.000000 -0.000000 0.000000 -0.000003 -0.000005 0.000004 0.000010 -0.000009 0.000086 -0.000009 -0.000001 0.000025 0.000000 -0.000002 0.000000 -0.000002 -0.000003 0.000007 0.000009 -0.000008 0.000083 -0.000003 0.000000 0.000020 -0.000000 -0.000004 0.000000 -0.000003 -0.000005 0.000004 0.000010 -0.000008 0.000086 -0.000004 0.000006 0.000021 -0.000000 -0.000001 0.000000 -52.635804 0.369028 6.608491 74.696800 6.667188 -1.311475 -32.356887 5.955122 -6.610316 -0.000003 0.000002 -0.000001 0.000000 0.000000 -0.000000 -48.209989 -14.240194 -6.382154 73.869384 -7.278164 -4.064723 -37.659296 -10.766843 5.337192 0.000004 -0.000001 0.000000 -0.000000 -0.000001 -0.000000 
0.704092 69.254852 -0.742132 11.797555 2.884630 -1.381569 9.877029 1.552868 1.245318 7.606520 0.771335 0.057330 0.000000 0.000000 0.000000 7.597682 0.860255 0.038072 -11.217812 -1.906714 7.417775 -27.445208 2.029513 -5.944886 0.000000 -0.000000 -0.000000 3.557338 -26.212545 4.772365 0.000000 0.000000 0.000000 -62.440264 -21.827253 -66.761705 -0.000088 -109.308715 -0.000094 0.684127 -5.143283 14.587539 -15.245206 10.163099 26.456304 3.939041 7.948703 0.746813 -0.579464 1.574991 2.538713 -0.000001 -0.000000 0.000000 0.000004 -0.000002 0.000004 -0.000001 0.000019 -0.000070 0.000002 0.000010 -0.000042 -0.000000 -0.000001 -0.000001 -0.000003 -0.001921 0.015974 0.000003 0.001940 -0.016034 -0.000001 0.000007 -0.000050 0.000000 -0.000000 -0.000002 0.000004 -0.000002 0.000003 -0.000000 0.000016 -0.000071 0.000005 0.000010 -0.000049 -0.000001 -0.000004 0.000002 -0.018085 4.054253 0.511065 -0.018089 -4.054243 -0.511128 -0.000007 0.000005 -0.000055 -0.000000 0.000003 0.000001 1.196364 13.156124 10.917911 0.000000 0.000000 0.000000 -58.738807 43.556191 51.453243 0.000080 106.272682 -0.000079 3.405172 -3.961060 -38.612094 -6.948217 -5.049357 -29.743008 4.637208 -8.634121 -0.225402 -1.273761 0.137312 -2.094857 -0.000000 0.000003 0.000001 -0.000003 -0.000001 0.000003 0.000010 -0.000010 0.000086 -0.000004 0.000001 0.000020 0.000001 -0.000003 -0.000001 -0.000003 -0.000001 0.000003 0.000010 -0.000007 0.000086 -0.000010 0.000002 0.000024 -0.000000 -0.000006 0.000000 -0.000002 0.000003 0.000007 0.000009 -0.000006 0.000082 -0.000004 0.000001 0.000020 0.000000 -0.000001 0.000000 -0.000003 -0.000001 0.000003 0.000010 -0.000008 0.000086 -0.000003 0.000007 0.000021 -0.000000 0.000001 0.000000 -52.622448 0.367953 6.612205 74.701745 6.668799 -1.314992 -32.362495 5.958563 -6.615564 -0.000003 0.000004 -0.000001 -0.000000 0.000000 0.000000 -48.208431 -14.242077 -6.373283 73.877061 -7.280159 -4.078450 -37.659255 -10.768459 5.334916 0.000004 -0.000001 0.000000 -0.000000 -0.000001 -0.000000 
0.702270 69.250923 -0.744387 11.788159 2.877116 -1.376776 9.880209 1.547079 1.251860 7.609034 0.766257 0.060674 0.000000 0.000000 0.000000 7.600267 0.854941 0.041497 -11.217681 -1.900473 7.402069 -27.452701 2.051494 -5.990263 0.000000 -0.000000 -0.000000 3.557339 -26.212547 4.772364 0.000000 0.000000 0.000000 -62.433502 -21.799061 -66.740306 0.000044 -109.303032 0.000054 0.645388 -5.153776 14.610207 -15.245206 10.163101 26.456301 3.939041 7.948706 0.746813 -0.579464 1.574993 2.538713 0.000001 -0.000002 -0.000001 0.000003 -0.000001 0.000005 -0.000002 0.000012 -0.000069 0.000001 0.000007 -0.000041 -0.000002 0.000002 -0.000002 -0.000004 -0.001922 0.015973 0.000002 0.001937 -0.016037 -0.000001 0.000013 -0.000047 0.000001 -0.000003 0.000003 0.000003 -0.000001 0.000003 -0.000001 0.000016 -0.000070 0.000004 0.000007 -0.000048 -0.000000 -0.000004 -0.000001 -0.018085 4.054257 0.511064 -0.018089 -4.054243 -0.511128 -0.000006 0.000009 -0.000052 0.000000 -0.000000 0.000002 1.196225 13.178825 10.886483 0.000000 0.000000 0.000000 -58.723323 43.560348 51.421035 0.000079 106.244733 -0.000099 3.384698 -3.970388 -38.621264 -6.948217 -5.049357 -29.743005 4.637207 -8.634122 -0.225404 -1.273760 0.137305 -2.094853 -0.000000 0.000001 -0.000000 -0.000004 -0.000001 0.000004 0.000010 -0.000002 0.000086 -0.000004 0.000005 0.000020 -0.000000 0.000003 0.000000 -0.000004 -0.000001 0.000004 0.000010 -0.000004 0.000086 -0.000009 0.000004 0.000025 -0.000000 0.000000 0.000000 -0.000002 0.000002 0.000007 0.000009 -0.000006 0.000082 -0.000003 0.000007 0.000020 0.000000 0.000003 0.000000 -0.000004 -0.000001 0.000004 0.000010 -0.000005 0.000086 -0.000003 0.000009 0.000020 -0.000000 0.000000 -0.000001 -52.613282 0.367775 6.613601 74.707100 6.670803 -1.315823 -32.367546 5.963482 -6.620047 -0.000003 0.000002 -0.000001 -0.000000 -0.000001 0.000000 -48.209418 -14.248975 -6.368062 73.884765 -7.281358 -4.091583 -37.660884 -10.766780 5.332634 0.000004 -0.000001 0.000000 -0.000000 -0.000001 0.000000 
0.700666 69.246902 -0.746250 11.782042 2.871993 -1.372859 9.882985 1.540719 1.256397 7.610898 0.761036 0.063448 0.000000 0.000000 0.000000 7.602201 0.849653 0.044323 -11.220981 -1.896257 7.395015 -27.466503 2.071049 -6.020812 0.000000 -0.000000 -0.000000 3.557340 -26.212548 4.772365 0.000000 0.000000 0.000000 -62.430470 -21.781192 -66.726358 -0.000001 -109.318428 -0.000002 0.640060 -5.168573 14.635400 -15.245206 10.163101 26.456301 3.939039 7.948709 0.746814 -0.579465 1.574990 2.538713 -0.000001 -0.000001 -0.000000 0.000002 -0.000000 0.000005 -0.000002 0.000016 -0.000070 0.000001 0.000007 -0.000043 0.000000 0.000000 -0.000002 -0.000004 -0.001925 0.015973 0.000002 0.001941 -0.016036 -0.000003 0.000013 -0.000048 -0.000001 -0.000002 0.000000 0.000002 -0.000000 0.000004 -0.000002 0.000015 -0.000070 0.000004 0.000012 -0.000049 -0.000002 -0.000000 -0.000000 -0.018086 4.054257 0.511064 -0.018089 -4.054241 -0.511129 -0.000004 0.000008 -0.000055 0.000001 0.000000 0.000001 1.195821 13.196533 10.865739 0.000000 0.000000 0.000000 -58.712716 43.570740 51.388561 -0.000067 106.243886 0.000081 3.384065 -3.974713 -38.619918 -6.948218 -5.049364 -29.743008 4.637208 -8.634124 -0.225403 -1.273760 0.137310 -2.094856 0.000001 0.000000 -0.000000 -0.000004 -0.000002 0.000003 0.000010 -0.000003 0.000086 -0.000003 0.000003 0.000020 0.000000 0.000004 -0.000000 -0.000004 -0.000002 0.000003 0.000010 -0.000005 0.000086 -0.000009 0.000005 0.000025 -0.000000 -0.000004 -0.000000 -0.000002 -0.000000 0.000007 0.000009 -0.000003 0.000082 -0.000004 0.000007 0.000020 0.000000 0.000003 0.000000 -0.000004 -0.000002 0.000003 0.000010 -0.000005 0.000086 -0.000003 0.000007 0.000021 -0.000000 0.000001 0.000001 -52.609300 0.368737 6.612431 74.712639 6.673152 -1.313483 -32.371244 5.968640 -6.624148 -0.000003 0.000004 -0.000001 -0.000000 0.000002 0.000000 -48.212820 -14.258025 -6.367480 73.892497 -7.280672 -4.101498 -37.663292 -10.762161 5.330251 0.000004 -0.000001 0.000000 0.000000 -0.000001 -0.000000 
0.699313 69.243004 -0.747713 11.778232 2.868375 -1.369425 9.885272 1.533925 1.258639 7.612146 0.755872 0.065494 0.000000 0.000000 0.000000 7.603504 0.844574 0.046389 -11.226471 -1.894191 7.395388 -27.483662 2.085328 -6.034297 0.000000 0.000000 -0.000000 3.557339 -26.212548 4.772365 0.000000 0.000000 0.000000 -62.433769 -21.772910 -66.719549 -0.000006 -109.343768 0.000007 0.658068 -5.192772 14.649163 -15.245204 10.163100 26.456301 3.939044 7.948701 0.746814 -0.579464 1.574989 2.538714 -0.000000 -0.000001 0.000000 0.000003 -0.000004 0.000004 0.000000 0.000015 -0.000070 0.000001 0.000006 -0.000042 -0.000001 -0.000001 -0.000002 -0.000003 -0.001926 0.015972 0.000004 0.001941 -0.016036 -0.000003 0.000013 -0.000049 -0.000000 -0.000002 -0.000000 0.000003 -0.000004 0.000004 0.000000 0.000014 -0.000070 0.000004 0.000012 -0.000046 0.000000 -0.000000 -0.000000 -0.018086 4.054256 0.511063 -0.018089 -4.054241 -0.511128 -0.000005 0.000009 -0.000052 -0.000001 0.000000 0.000001 1.195101 13.207563 10.859375 0.000000 0.000000 0.000000 -58.714061 43.584766 51.369262 0.000080 106.259780 -0.000090 3.410073 -3.971438 -38.610783 -6.948218 -5.049361 -29.743005 4.637211 -8.634122 -0.225401 -1.273761 0.137307 -2.094861 0.000001 0.000003 -0.000000 -0.000004 -0.000004 0.000003 0.000010 -0.000008 0.000086 -0.000004 0.000005 0.000020 0.000000 -0.000003 -0.000001 -0.000004 -0.000004 0.000003 0.000010 -0.000006 0.000086 -0.000009 0.000002 0.000025 -0.000000 0.000001 0.000000 -0.000002 -0.000002 0.000007 0.000008 -0.000003 0.000082 -0.000004 0.000005 0.000020 -0.000000 0.000001 0.000000 -0.000004 -0.000004 0.000003 0.000010 -0.000007 0.000086 -0.000004 0.000005 0.000020 -0.000000 -0.000000 0.000000 -52.608118 0.371492 6.608980 74.717645 6.675634 -1.308061 -32.375011 5.973773 -6.627820 -0.000003 0.000004 -0.000001 0.000000 0.000000 0.000000 -48.217382 -14.266570 -6.370838 73.899881 -7.278260 -4.107128 -37.666649 -10.755429 5.327630 0.000004 -0.000001 0.000000 0.000000 -0.000001 0.000000 
0.698084 69.239044 -0.748865 11.774417 2.864974 -1.366150 9.886645 1.527304 1.259145 7.612827 0.751157 0.066892 0.000000 0.000000 0.000000 7.604227 0.840026 0.047794 -11.231285 -1.894202 7.400286 -27.497524 2.091313 -6.032923 0.000000 0.000000 -0.000000 3.557336 -26.212545 4.772365 0.000000 0.000000 0.000000 -62.444923 -21.769406 -66.716987 0.000104 -109.360624 0.000084 0.676667 -5.225327 14.640027 -15.245203 10.163105 26.456304 3.939039 7.948707 0.746814 -0.579462 1.574989 2.538713 0.000001 -0.000002 -0.000001 0.000003 0.000003 0.000006 -0.000000 0.000011 -0.000070 0.000002 0.000010 -0.000042 -0.000000 0.000003 -0.000002 -0.000002 -0.001919 0.015973 0.000002 0.001939 -0.016037 -0.000005 0.000018 -0.000049 0.000001 -0.000000 0.000001 0.000003 0.000003 0.000004 0.000000 0.000016 -0.000073 0.000004 0.000009 -0.000051 -0.000001 0.000001 0.000001 -0.018085 4.054259 0.511065 -0.018088 -4.054240 -0.511126 -0.000004 0.000006 -0.000055 -0.000001 0.000000 0.000001 1.194076 13.211504 10.867400 0.000000 0.000000 0.000000 -58.732148 43.600226 51.374361 0.000033 106.270585 -0.000026 3.455479 -3.960960 -38.600548 -6.948218 -5.049362 -29.743008 4.637208 -8.634122 -0.225402 -1.273763 0.137315 -2.094860 -0.000001 0.000002 -0.000000 -0.000003 -0.000003 0.000003 0.000010 -0.000007 0.000087 -0.000003 0.000002 0.000020 -0.000000 -0.000000 0.000000 -0.000003 -0.000003 0.000003 0.000010 -0.000006 0.000086 -0.000009 0.000002 0.000025 0.000000 0.000003 -0.000000 -0.000002 0.000000 0.000007 0.000009 -0.000009 0.000082 -0.000004 0.000002 0.000021 0.000000 -0.000000 0.000001 -0.000003 -0.000003 0.000003 0.000010 -0.000006 0.000086 -0.000004 0.000004 0.000021 -0.000000 0.000002 0.000000 -52.607275 0.376415 6.604540 74.722925 6.677417 -1.300258 -32.379021 5.979298 -6.630931 -0.000003 0.000004 -0.000001 -0.000000 0.000000 0.000000 -48.221026 -14.273092 -6.376114 73.907394 -7.274477 -4.109124 -37.670184 -10.747443 5.324747 0.000004 -0.000000 0.000000 -0.000000 -0.000000 -0.000000 
